# xmcd CD database file
#
# Track frame offsets:
#	150
#	17369
#	45485
#	71434
#	85959
#	101855
#	121441
#	138263
#	151837
#	165596
#	180659
#	196846
#	215783
#	230245
#	246138
#	263765
#	278119
#	286960
#	298007
#
# Disc length: 4105 seconds
#
# Revision: 0
# Processed by: cddbd v1.5.1PL0 Copyright (c) Steve Scherf et al.
# Submitted via: CDex 1.51
#
DISCID=14100713
DTITLE=J.J.Bokun, K.Pelech - Duo Guitarinet
DYEAR=1900
DGENRE=Jazz
TTITLE0=A.Piazzolla - Bordel (1900)
TTITLE1=A.Piazzolla - Cafe (1930)
TTITLE2=A.Piazzolla - Nightclub (1960)
TTITLE3=A.Piazzolla - Concert d'Aujourd'hui
TTITLE4=A.Pixinguinha, B.Lacerda - Naquele tempo
TTITLE5=A.Piazzolla - Tango #2
TTITLE6=A.Piazzolla - Libertango
TTITLE7=L.Brouwer - Un dia de noviembre
TTITLE8=A.Piazzolla - Two Tango/1.Anxieu et rubato
TTITLE9=A.Piazzolla - Two Tango/2.Molto marcato e energico
TTITLE10=F.Kleyntjans - Aria op.92B
TTITLE11=R.Gnatali - Sonata/1.Allegro comodo
TTITLE12=R.Gnatali - Sonata/2.Adagio
TTITLE13=R.Gnatali - Sonata/3.Con spirito
TTITLE14=E.Gismonti - Aqua e vinho
TTITLE15=J.M.Zenamon - Tango
TTITLE16=C.Machado - Music populaires bresilliennes/1.Algodao doce
TTITLE17=C.Machado - Music populaires bresillienne/2.Pe de moleque
TTITLE18=C.Machado - Music populaires bresilliennes/3.Sambossa
EXTD=
EXTT0=
EXTT1=
EXTT2=
EXTT3=
EXTT4=
EXTT5=
EXTT6=
EXTT7=
EXTT8=
EXTT9=
EXTT10=
EXTT11=
EXTT12=
EXTT13=
EXTT14=
EXTT15=
EXTT16=
EXTT17=
EXTT18=
PLAYORDER=
